<svg version="1.1" id="Layer_1" xmlns="http://www.w3.org/2000/svg" xmlns:xlink="http://www.w3.org/1999/xlink" x="0px" y="0px"
	 viewBox="0 0 200 200" xml:space="preserve">
<style type="text/css">
	.st0{fill:none;stroke:#CEC9A5;stroke-width:15;stroke-miterlimit:10;}
	.st1{fill:#CEC9A5;}
	.st2{fill:#F4D049;}
	.st3{fill:none;stroke:#CEC9A5;stroke-width:10;stroke-miterlimit:10;}
	.st4{fill:#F9F9F9;}
	.st5{fill:#E8BD34;}
</style>
<path class="st0" d="M92.4,122.5c0,19.5-14.8,35.3-33,35.3s-18.2-18-18.2-37.5s0-33,18.2-33S92.4,103,92.4,122.5z"/>
<g>
	<path class="st1" d="M165.5,198.9c-36.1,0-72.2,0-108.3,0c4.7-49.8,9.4-99.5,14.1-149.3c26.7,0,53.4,0,80,0
		C156.1,99.4,160.8,149.2,165.5,198.9z"/>
</g>
<g>
	<path class="st2" d="M66.4,190.5c4-44.1,8-88.3,12-132.4c22.8,0,45.5,0,68.3,0c4,44.1,8,88.3,12,132.4
		C128,190.5,97.2,190.5,66.4,190.5z"/>
	<path class="st3" d="M66.4,190.5c4-44.1,8-88.3,12-132.4c22.8,0,45.5,0,68.3,0c4,44.1,8,88.3,12,132.4
		C128,190.5,97.2,190.5,66.4,190.5z"/>
</g>
<circle class="st4" cx="94.7" cy="24.3" r="13.9"/>
<circle class="st4" cx="114.2" cy="22.2" r="13.9"/>
<circle class="st4" cx="86.4" cy="45.9" r="13.9"/>
<circle class="st4" cx="84.8" cy="32" r="13.9"/>
<circle class="st4" cx="152.5" cy="18" r="13.9"/>
<circle class="st4" cx="72.4" cy="32" r="13.9"/>
<circle class="st4" cx="69.6" cy="50.1" r="13.9"/>
<circle class="st4" cx="149" cy="39.9" r="13.9"/>
<circle class="st4" cx="144.9" cy="26.4" r="13.9"/>
<circle class="st4" cx="131" cy="45.9" r="13.9"/>
<circle class="st4" cx="128.2" cy="24.2" r="13.9"/>
<circle class="st4" cx="114.2" cy="40.4" r="13.9"/>
<circle class="st4" cx="100.3" cy="40.4" r="13.9"/>
<circle class="st4" cx="155.8" cy="33.1" r="13.9"/>
<circle class="st4" cx="152.9" cy="50.1" r="13.9"/>
<circle class="st4" cx="142.1" cy="46.7" r="13.9"/>
<circle class="st4" cx="135.1" cy="15" r="13.9"/>
<g>
	<g>
		<path class="st5" d="M91.2,181.3C91.2,181.3,91.2,181.3,91.2,181.3c-2.9,0-5.2-2.1-5-4.6c2.1-33.7,4.3-67.4,6.4-101
			c0.2-2.6,2.1-4.6,4.2-4.6c0,0,0,0,0,0c2.2,0,3.9,2.1,3.8,4.6c-1.3,33.7-2.6,67.4-3.9,101C96.6,179.2,94.1,181.3,91.2,181.3z"/>
		<path class="st5" d="M112.6,181.3C112.6,181.3,112.6,181.3,112.6,181.3c-2.9,0-5.3-2.1-5.3-4.6c0.4-33.7,0.9-67.4,1.3-101
			c0-2.6,1.8-4.6,4-4.6c0,0,0,0,0,0c2.2,0,4,2.1,4,4.6c0.4,33.7,0.9,67.4,1.3,101C117.9,179.2,115.6,181.3,112.6,181.3z"/>
		<path class="st5" d="M134.1,181.3L134.1,181.3c-2.9,0-5.4-2.1-5.5-4.6c-1.3-33.7-2.6-67.4-3.9-101c-0.1-2.6,1.6-4.6,3.8-4.6
			c0,0,0,0,0,0c2.2,0,4.1,2.1,4.2,4.6c2.1,33.7,4.3,67.4,6.4,101C139.3,179.2,137,181.3,134.1,181.3z"/>
	</g>
</g>
<path class="st4" d="M96.6,81.1L96.6,81.1c-1.9,0-3.4-1.5-3.4-3.4V36.2c0-1.9,1.5-3.4,3.4-3.4h0c1.9,0,3.4,1.5,3.4,3.4v41.5
	C100,79.6,98.4,81.1,96.6,81.1z"/>
</svg>
